<?xml version="1.0" encoding="iso-8859-1"?>
<!-- Generator: Adobe Illustrator 16.0.0, SVG Export Plug-In . SVG Version: 6.00 Build 0)  -->
<!DOCTYPE svg PUBLIC "-//W3C//DTD SVG 1.1//EN" "http://www.w3.org/Graphics/SVG/1.1/DTD/svg11.dtd">
<svg version="1.1" xmlns="http://www.w3.org/2000/svg" xmlns:xlink="http://www.w3.org/1999/xlink" x="0px" y="0px" width="28px"
	 height="29px" viewBox="0 0 28 29" style="enable-background:new 0 0 28 29;" xml:space="preserve">
<g id="printer-2">
	<path d="M26.08,8H21V1.998C21,0.836,19.998,0,18.836,0H8.99C7.828,0,7,0.836,7,1.998V8H1.92C0.859,8,0,8.859,0,9.919v9.161
		C0,20.141,0.859,21,1.92,21H7v5.984C7,28.146,7.828,29,8.99,29h9.979C20.131,29,21,28.084,21,26.922V21h5.08
		c1.061,0,1.92-0.859,1.92-1.92V9.919C28,8.859,27.141,8,26.08,8z M2.02,12.037c-0.548,0-0.991-0.443-0.991-0.991
		s0.443-0.991,0.991-0.991s0.991,0.443,0.991,0.991S2.567,12.037,2.02,12.037z M5.02,12.037c-0.548,0-0.991-0.443-0.991-0.991
		s0.443-0.991,0.991-0.991s0.991,0.443,0.991,0.991S5.567,12.037,5.02,12.037z M19,27H9v-6.993C9,19.451,9.451,19,10.008,19h7.984
		C18.549,19,19,19.451,19,20.007V27z M19,7.039C19,7.569,18.569,8,18.039,8H9.961C9.431,8,9,7.569,9,7.039V2h10V7.039z"/>
	<path d="M10.5,4h7C17.776,4,18,3.776,18,3.5S17.776,3,17.5,3h-7C10.224,3,10,3.224,10,3.5S10.224,4,10.5,4z"/>
	<path d="M10.5,6h7C17.776,6,18,5.776,18,5.5S17.776,5,17.5,5h-7C10.224,5,10,5.224,10,5.5S10.224,6,10.5,6z"/>
	<path d="M17.5,23h-7c-0.276,0-0.5,0.224-0.5,0.5s0.224,0.5,0.5,0.5h7c0.276,0,0.5-0.224,0.5-0.5S17.776,23,17.5,23z"/>
	<path d="M17.5,21h-7c-0.276,0-0.5,0.224-0.5,0.5s0.224,0.5,0.5,0.5h7c0.276,0,0.5-0.224,0.5-0.5S17.776,21,17.5,21z"/>
	<path d="M17.5,25h-7c-0.276,0-0.5,0.224-0.5,0.5s0.224,0.5,0.5,0.5h7c0.276,0,0.5-0.224,0.5-0.5S17.776,25,17.5,25z"/>
</g>
<g id="Layer_1">
</g>
</svg>
