<?xml version="1.0" encoding="iso-8859-1"?>
<!-- Generator: Adobe Illustrator 16.0.0, SVG Export Plug-In . SVG Version: 6.00 Build 0)  -->
<!DOCTYPE svg PUBLIC "-//W3C//DTD SVG 1.1//EN" "http://www.w3.org/Graphics/SVG/1.1/DTD/svg11.dtd">
<svg version="1.1" id="Layer_1" xmlns="http://www.w3.org/2000/svg" xmlns:xlink="http://www.w3.org/1999/xlink" x="0px" y="0px"
	 width="32px" height="16px" viewBox="0 0 32 16" style="enable-background:new 0 0 32 16;" xml:space="preserve">
<g id="psp">
	<path d="M24,0H8C3.582,0,0,3.582,0,8s3.582,8,8,8h16c4.418,0,8-3.582,8-8S28.418,0,24,0z M4,5c0-0.553,0.447-1,1-1s1,0.447,1,1v1
		L5,7L4,6V5z M2,9C1.447,9,1,8.553,1,8s0.447-1,1-1h1l1,1L3,9H2z M6,11c0,0.553-0.447,1-1,1s-1-0.447-1-1v-1l1-1l1,1V11z M8,9H7L6,8
		l1-1h1c0.553,0,1,0.447,1,1S8.553,9,8,9z M12,14h-1c-0.553,0-1-0.447-1-1s0.447-1,1-1h1c0.553,0,1,0.447,1,1S12.553,14,12,14z
		 M20,14h-1c-0.553,0-1-0.447-1-1s0.447-1,1-1h1c0.553,0,1,0.447,1,1S20.553,14,20,14z M22,10c0,0.553-0.447,1-1,1H11
		c-0.553,0-1-0.447-1-1V3c0-0.553,0.447-1,1-1h10c0.553,0,1,0.447,1,1V10z M24,11c-0.553,0-1-0.447-1-1s0.447-1,1-1s1,0.447,1,1
		S24.553,11,24,11z M24,7c-0.553,0-1-0.448-1-1c0-0.553,0.447-1,1-1s1,0.447,1,1C25,6.552,24.553,7,24,7z M28,11
		c-0.553,0-1-0.447-1-1s0.447-1,1-1s1,0.447,1,1S28.553,11,28,11z M28,7c-0.553,0-1-0.448-1-1c0-0.553,0.447-1,1-1s1,0.447,1,1
		C29,6.552,28.553,7,28,7z"/>
</g>
<g id="Layer_1_1_">
</g>
</svg>
