<?xml version="1.0" encoding="iso-8859-1"?>
<!-- Generator: Adobe Illustrator 16.0.0, SVG Export Plug-In . SVG Version: 6.00 Build 0)  -->
<!DOCTYPE svg PUBLIC "-//W3C//DTD SVG 1.1//EN" "http://www.w3.org/Graphics/SVG/1.1/DTD/svg11.dtd">
<svg version="1.1" xmlns="http://www.w3.org/2000/svg" xmlns:xlink="http://www.w3.org/1999/xlink" x="0px" y="0px"
	 width="29.972px" height="29.932px" viewBox="0 0 29.972 29.932" style="enable-background:new 0 0 29.972 29.932;"
	 xml:space="preserve">
<g id="repair">
	<path d="M26.99,8.382c-0.724,0.33-1.55,0.357-2.294,0.078c-0.746-0.279-1.35-0.842-1.679-1.566s-0.357-1.551-0.078-2.295
		s0.843-1.35,1.566-1.678l2.921-1.328c-1.992-1.635-4.813-2.105-7.316-0.967c-3.429,1.561-4.979,5.545-3.559,8.998L0.819,25.204
		C0.297,25.722,0.002,26.427,0,27.161c-0.002,0.736,0.29,1.441,0.81,1.961c1.076,1.076,2.818,1.08,3.899,0.01l15.793-15.639
		c1.684,0.645,3.615,0.645,5.387-0.162c2.555-1.162,4.064-3.672,4.083-6.305L26.99,8.382z M2.956,27.993c-0.552,0-1-0.447-1-1.002
		c0-0.553,0.448-1.002,1-1.002s1,0.449,1,1.002C3.956,27.546,3.508,27.993,2.956,27.993z"/>
</g>
<g id="Layer_1">
</g>
</svg>
