<?xml version="1.0" encoding="iso-8859-1"?>
<!-- Generator: Adobe Illustrator 16.0.0, SVG Export Plug-In . SVG Version: 6.00 Build 0)  -->
<!DOCTYPE svg PUBLIC "-//W3C//DTD SVG 1.1//EN" "http://www.w3.org/Graphics/SVG/1.1/DTD/svg11.dtd">
<svg version="1.1" xmlns="http://www.w3.org/2000/svg" xmlns:xlink="http://www.w3.org/1999/xlink" x="0px" y="0px"
	 width="20.739px" height="32px" viewBox="0 0 20.739 32" style="enable-background:new 0 0 20.739 32;" xml:space="preserve">
<g id="tools">
	<path d="M11.089,1.75C10.885,0.732,9.992,0,8.955,0H7.739v4c0,1.104-0.896,2-2,2s-2-0.896-2-2V0H2.523
		C1.486,0,0.592,0.732,0.389,1.75L0.112,3.136C-0.226,4.822,0.21,6.57,1.301,7.899C1.711,8.4,2.2,8.822,2.739,9.153V29
		c0,1.657,1.343,3,3,3s3-1.343,3-3V9.153C9.278,8.822,9.766,8.4,10.176,7.899c1.091-1.329,1.528-3.077,1.19-4.764L11.089,1.75z
		 M5.739,30c-0.553,0-1-0.447-1-1s0.447-1,1-1s1,0.447,1,1S6.292,30,5.739,30z"/>
	<path d="M18.739,19V6.985c0.242-0.018,0.472-0.119,0.633-0.304c0.176-0.203,0.254-0.472,0.217-0.736L18.739,0h-2l-0.85,5.945
		c-0.037,0.265,0.041,0.533,0.217,0.736c0.161,0.185,0.391,0.286,0.633,0.304V19c-1.104,0-2,0.896-2,2v9c0,1.104,0.896,2,2,2h2
		c1.104,0,2-0.896,2-2v-9C20.739,19.896,19.844,19,18.739,19z"/>
</g>
<g id="Layer_1">
</g>
</svg>
