<?xml version="1.0" encoding="iso-8859-1"?>
<!-- Generator: Adobe Illustrator 16.0.0, SVG Export Plug-In . SVG Version: 6.00 Build 0)  -->
<!DOCTYPE svg PUBLIC "-//W3C//DTD SVG 1.1//EN" "http://www.w3.org/Graphics/SVG/1.1/DTD/svg11.dtd">
<svg version="1.1" id="Layer_1" xmlns="http://www.w3.org/2000/svg" xmlns:xlink="http://www.w3.org/1999/xlink" x="0px" y="0px"
	 width="32px" height="32px" viewBox="0 0 32 32" style="enable-background:new 0 0 32 32;" xml:space="preserve">
<g id="tv">
	<path d="M29,7.001H18.43l3.418-5.471c0.293-0.469,0.15-1.086-0.316-1.377c-0.471-0.295-1.086-0.152-1.379,0.316L16.07,7.001h-0.141
		L11.847,0.47c-0.292-0.469-0.909-0.611-1.378-0.316c-0.468,0.293-0.61,0.908-0.317,1.379l3.419,5.469H3c-1.657,0-3,1.344-3,3v19
		c0,1.658,1.343,3,3,3h26c1.657,0,3-1.342,3-3v-19C32,8.343,30.657,7.001,29,7.001z M4,21.415l10.414-10.414h3.172L4,24.586V21.415z
		 M7,11.001h4.586L4,18.586v-4.585C4,12.343,5.343,11.001,7,11.001z M24,25c0,1.656-1.343,3-3,3H7c-0.979,0-1.839-0.477-2.387-1.199
		l15.801-15.8H21c1.657,0,3,1.342,3,3V25z M28.5,27c-0.828,0-1.5-0.672-1.5-1.5s0.672-1.5,1.5-1.5s1.5,0.672,1.5,1.5
		S29.328,27,28.5,27z M28.5,21c-0.828,0-1.5-0.672-1.5-1.5s0.672-1.5,1.5-1.5s1.5,0.672,1.5,1.5S29.328,21,28.5,21z M28.5,15.001
		c-0.828,0-1.5-0.672-1.5-1.5s0.672-1.5,1.5-1.5s1.5,0.672,1.5,1.5S29.328,15.001,28.5,15.001z"/>
</g>
<g id="Layer_1_1_">
</g>
</svg>
