<?xml version="1.0" encoding="iso-8859-1"?>
<!-- Generator: Adobe Illustrator 16.0.0, SVG Export Plug-In . SVG Version: 6.00 Build 0)  -->
<!DOCTYPE svg PUBLIC "-//W3C//DTD SVG 1.1//EN" "http://www.w3.org/Graphics/SVG/1.1/DTD/svg11.dtd">
<svg version="1.1" xmlns="http://www.w3.org/2000/svg" xmlns:xlink="http://www.w3.org/1999/xlink" x="0px" y="0px" width="32px"
	 height="26px" viewBox="0 0 32 26" style="enable-background:new 0 0 32 26;" xml:space="preserve">
<g id="camera-4">
	<path d="M30,4h-6V3c0-0.553-0.447-1-1-1h-6c-0.553,0-1,0.447-1,1v1h-6V2c0-1.104-0.896-2-2-2H2C0.896,0,0,0.896,0,2v22
		c0,1.104,0.896,2,2,2h28c1.104,0,2-0.896,2-2V6C32,4.896,31.104,4,30,4z M20,7c4.418,0,8,3.582,8,8s-3.582,8-8,8s-8-3.582-8-8
		S15.582,7,20,7z M2,2h6v22H2V2z"/>
	<path d="M6,3H4C3.447,3,3,3.447,3,4s0.447,1,1,1h2c0.553,0,1-0.447,1-1S6.553,3,6,3z"/>
	<path d="M20,20c2.762,0,5-2.238,5-5s-2.238-5-5-5s-5,2.238-5,5S17.238,20,20,20z M20,13c1.104,0,2,0.896,2,2s-0.896,2-2,2
		s-2-0.896-2-2S18.896,13,20,13z"/>
</g>
<g id="Layer_1">
</g>
</svg>
