<?xml version="1.0" encoding="iso-8859-1"?>
<!-- Generator: Adobe Illustrator 16.0.0, SVG Export Plug-In . SVG Version: 6.00 Build 0)  -->
<!DOCTYPE svg PUBLIC "-//W3C//DTD SVG 1.1//EN" "http://www.w3.org/Graphics/SVG/1.1/DTD/svg11.dtd">
<svg version="1.1" xmlns="http://www.w3.org/2000/svg" xmlns:xlink="http://www.w3.org/1999/xlink" x="0px" y="0px"
	 width="23.228px" height="28.876px" viewBox="0 0 23.228 28.876" style="enable-background:new 0 0 23.228 28.876;"
	 xml:space="preserve">
<g id="globe">
	<path d="M22.935,19.301c0.391-0.391,0.391-1.023,0-1.414s-1.023-0.391-1.414,0c-2.161,2.16-5.033,3.35-8.088,3.35
		c-3.056,0-5.929-1.189-8.089-3.35c-4.459-4.461-4.459-11.72,0-16.18c0.391-0.391,0.391-1.023,0-1.414s-1.023-0.391-1.414,0
		c-5.239,5.24-5.239,13.767,0,19.008c2.301,2.301,5.291,3.651,8.503,3.887v3.688H8.149c-0.553,0-1,0.447-1,1s0.447,1,1,1h10.565
		c0.553,0,1-0.447,1-1s-0.447-1-1-1h-4.282v-3.688C17.644,22.952,20.633,21.602,22.935,19.301z"/>
	<path d="M6.635,16.596c3.754,3.754,9.841,3.754,13.596,0c3.756-3.756,3.756-9.844,0-13.598c-3.755-3.755-9.841-3.755-13.596,0
		S2.88,12.84,6.635,16.596z M15.574,2.127c3.777,1.379,4.731,4.433,4.283,5.279c-0.448,0.846,0.099,2.988-1.096,3.088
		c-1.195,0.1-2.59-0.398-4.134-1.246c-1.545-0.846,1.593-0.896,2.366-3.013c0.771-2.116,0.074-3.013-3.562-2.665L13.233,3.77
		C13.233,3.77,14.674,1.799,15.574,2.127z M7.033,5.14c0,0-2.123,2.315,0.318,2.366c2.439,0.049,5.109-1.32,4.362,1.12
		s-1.992,5.978-0.448,5.628c1.544-0.348,4.084-1.594,4.981-1.295c0.896,0.299-0.847,4.234-0.847,4.234s-3.287,0.498-4.533-0.549
		c-1.244-1.045-1.942-1.842-1.918-3.213c0.025-1.369-0.721-1.119-1.767-2.266C6.136,10.021,3.795,5.887,7.033,5.14z"/>
</g>
<g id="Layer_1">
</g>
</svg>
