<?xml version="1.0" encoding="iso-8859-1"?>
<!-- Generator: Adobe Illustrator 16.0.0, SVG Export Plug-In . SVG Version: 6.00 Build 0)  -->
<!DOCTYPE svg PUBLIC "-//W3C//DTD SVG 1.1//EN" "http://www.w3.org/Graphics/SVG/1.1/DTD/svg11.dtd">
<svg version="1.1" xmlns="http://www.w3.org/2000/svg" xmlns:xlink="http://www.w3.org/1999/xlink" x="0px" y="0px" width="18px"
	 height="30px" viewBox="0 0 18 30" style="enable-background:new 0 0 18 30;" xml:space="preserve">
<g id="mp4-player">
	<path d="M18,2.274C18,1.019,16.843,0,15.592,0H2.266C1.015,0,0,1.019,0,2.274v25.33C0,28.86,1.015,30,2.266,30h13.326
		C16.843,30,18,28.86,18,27.604V2.274z M8.871,25.961c-1.108,0-2.009-0.9-2.009-2.018c0-1.115,0.9-2.016,2.009-2.016
		s2.01,0.9,2.01,2.016C10.881,25.061,9.979,25.961,8.871,25.961z M14,19H4V4h10V19z"/>
</g>
<g id="Layer_1">
</g>
</svg>
