<?xml version="1.0" encoding="iso-8859-1"?>
<!-- Generator: Adobe Illustrator 16.0.0, SVG Export Plug-In . SVG Version: 6.00 Build 0)  -->
<!DOCTYPE svg PUBLIC "-//W3C//DTD SVG 1.1//EN" "http://www.w3.org/Graphics/SVG/1.1/DTD/svg11.dtd">
<svg version="1.1" xmlns="http://www.w3.org/2000/svg" xmlns:xlink="http://www.w3.org/1999/xlink" x="0px" y="0px"
	 width="22.839px" height="30.711px" viewBox="0 0 22.839 30.711" style="enable-background:new 0 0 22.839 30.711;"
	 xml:space="preserve">
<g id="money">
	<path d="M17.223,4.864v1.071c0,0.322-0.063,0.63-0.193,0.908c0.32,0.279,1.025,0.898,1.326,1.213
		c1.104-0.288,1.916-1.292,1.916-2.486c0-0.902-0.465-1.695-1.166-2.154c0.006,0.063,0.003,0.062-0.004,0
		c-0.045-0.456-0.173-0.906-0.393-1.332c-1.016-1.969-3.582-2.666-5.735-1.557c-0.901,0.465-2.001,1.279-2.902,2.193h5.03
		C16.281,2.721,17.223,3.684,17.223,4.864z"/>
	<path d="M15.407,8.059c-0.101,0.015-0.202,0.029-0.306,0.029h-6.42c-0.334,0-0.65-0.084-0.932-0.221
		C3.243,10.459,0,17.331,0,22.355c0,1.251,0.202,2.334,0.574,3.269c1.504,3.77,5.79,5.087,10.846,5.087
		c5.055,0,9.34-1.318,10.844-5.088c0.373-0.934,0.575-2.019,0.575-3.271C22.839,17.448,19.748,10.785,15.407,8.059z M13.117,24.463
		c-0.719,0.235-0.824,0.871-0.824,1.39v0.07c0,0.918-0.26,0.946-0.936,0.946c-0.864,0-0.934-0.138-0.934-0.904
		c0-0.496-0.421-0.973-0.934-1.058l-1.443-0.326c-0.484-0.188-0.775-0.754-0.647-1.255l0.104-0.407
		c0.128-0.501,0.623-0.745,1.099-0.537c0,0,1.062,0.463,2.303,0.463c1.107,0,1.854-0.438,1.854-1.184
		c0-0.726-0.611-1.185-2.045-1.662c-2.044-0.688-3.428-1.643-3.428-3.496c0-2.31,2.402-2.962,2.402-2.962
		c0.631-0.192,0.836-0.844,0.836-1.343c0-0.771,0.417-0.904,0.928-0.904s0.928,0.008,0.928,0.837c0,0.463,0.42,0.902,0.934,0.982
		c0,0,0.654,0.029,1.08,0.191c0.426,0.161,0.664,0.706,0.531,1.207l-0.09,0.336c-0.133,0.5-0.625,0.726-1.092,0.5
		c0,0-0.527-0.258-1.902-0.258c-1.242,0-1.643,0.554-1.643,1.088c0,0.612,0.668,1.032,2.311,1.624
		c2.273,0.803,3.161,1.853,3.161,3.592C15.669,23.932,13.117,24.463,13.117,24.463z"/>
	<path d="M15.839,6c0,0.552-0.447,1-1,1h-6c-0.552,0-1-0.448-1-1V5c0-0.552,0.448-1,1-1h6c0.553,0,1,0.448,1,1V6z"/>
</g>
<g id="Layer_1">
</g>
</svg>
