<?xml version="1.0" encoding="iso-8859-1"?>
<!-- Generator: Adobe Illustrator 16.0.0, SVG Export Plug-In . SVG Version: 6.00 Build 0)  -->
<!DOCTYPE svg PUBLIC "-//W3C//DTD SVG 1.1//EN" "http://www.w3.org/Graphics/SVG/1.1/DTD/svg11.dtd">
<svg version="1.1" id="Layer_1" xmlns="http://www.w3.org/2000/svg" xmlns:xlink="http://www.w3.org/1999/xlink" x="0px" y="0px"
	 width="30px" height="28px" viewBox="0 0 30 28" style="enable-background:new 0 0 30 28;" xml:space="preserve">
<g id="monitor">
	<path d="M28.076,0H1.924C0.861,0,0,0.861,0,1.924v20.152C0,23.139,0.861,24,1.924,24H11c0,1.656-1.344,3-3,3
		c-0.275,0-0.5,0.224-0.5,0.5S7.725,28,8,28h14c0.275,0,0.5-0.224,0.5-0.5S22.275,27,22,27c-1.656,0-3-1.344-3-3h9.076
		C29.139,24,30,23.139,30,22.076V1.924C30,0.861,29.139,0,28.076,0z M15,21c-0.553,0-1-0.447-1-1s0.447-1,1-1s1,0.447,1,1
		S15.553,21,15,21z M27,17H3V3h24V17z"/>
</g>
<g id="Layer_1_1_">
</g>
</svg>
