<?xml version="1.0" encoding="iso-8859-1"?>
<!-- Generator: Adobe Illustrator 16.0.0, SVG Export Plug-In . SVG Version: 6.00 Build 0)  -->
<!DOCTYPE svg PUBLIC "-//W3C//DTD SVG 1.1//EN" "http://www.w3.org/Graphics/SVG/1.1/DTD/svg11.dtd">
<svg version="1.1" xmlns="http://www.w3.org/2000/svg" xmlns:xlink="http://www.w3.org/1999/xlink" x="0px" y="0px" width="31px"
	 height="23px" viewBox="0 0 31 23" style="enable-background:new 0 0 31 23;" xml:space="preserve">
<g id="notebook">
	<path d="M29,2.074C29,0.929,28.071,0,26.926,0H4.074C2.929,0,2,0.929,2,2.074V17h27V2.074z M15.5,1C15.776,1,16,1.224,16,1.5
		S15.776,2,15.5,2S15,1.776,15,1.5S15.224,1,15.5,1z M26,15H5V3h21V15z"/>
	<path d="M29,18H2l-2,3v0.93C0,22.521,0.479,23,1.07,23H29.93c0.591,0,1.07-0.479,1.07-1.07V21L29,18z M4,19h23l0.641,1H3.484L4,19z
		"/>
</g>
<g id="Layer_1">
</g>
</svg>
