<?xml version="1.0" encoding="iso-8859-1"?>
<!-- Generator: Adobe Illustrator 16.0.0, SVG Export Plug-In . SVG Version: 6.00 Build 0)  -->
<!DOCTYPE svg PUBLIC "-//W3C//DTD SVG 1.1//EN" "http://www.w3.org/Graphics/SVG/1.1/DTD/svg11.dtd">
<svg version="1.1" xmlns="http://www.w3.org/2000/svg" xmlns:xlink="http://www.w3.org/1999/xlink" x="0px" y="0px"
	 width="25.979px" height="25.979px" viewBox="0 0 25.979 25.979" style="enable-background:new 0 0 25.979 25.979;"
	 xml:space="preserve">
<g id="pencil">
	<path d="M25.301,3.399l-2.724-2.722c-0.738-0.738-1.794-0.892-2.396-0.369l5.489,5.489C26.191,5.196,26.039,4.14,25.301,3.399z"/>
	<rect x="15.956" y="2.696" transform="matrix(-0.7071 -0.7071 0.7071 -0.7071 18.1079 35.9976)" width="1.106" height="23.105"/>
	<polygon points="23.439,4.863 21.143,2.568 4.778,18.822 7.147,21.156 	"/>
	<rect x="11.188" y="-2.011" transform="matrix(0.7067 0.7075 -0.7075 0.7067 10.2121 -5.5517)" width="1.228" height="23.105"/>
	<polygon points="0,25.979 2.479,25.186 0.779,23.487 	"/>
	<polygon points="1.207,22.358 3.467,24.801 7.928,23.438 2.483,18.049 	"/>
</g>
<g id="Layer_1">
</g>
</svg>
