<?xml version="1.0" encoding="iso-8859-1"?>
<!-- Generator: Adobe Illustrator 16.0.0, SVG Export Plug-In . SVG Version: 6.00 Build 0)  -->
<!DOCTYPE svg PUBLIC "-//W3C//DTD SVG 1.1//EN" "http://www.w3.org/Graphics/SVG/1.1/DTD/svg11.dtd">
<svg version="1.1" xmlns="http://www.w3.org/2000/svg" xmlns:xlink="http://www.w3.org/1999/xlink" x="0px" y="0px" width="16px"
	 height="28px" viewBox="0 0 16 28" style="enable-background:new 0 0 16 28;" xml:space="preserve">
<g id="phone">
	<path d="M13.972,0H2.028C0.908,0,0,0.908,0,2.028v23.943C0,27.092,0.908,28,2.028,28h11.943C15.092,28,16,27.092,16,25.972V2.028
		C16,0.908,15.092,0,13.972,0z M4,1.5C4,1.224,4.224,1,4.5,1h7C11.776,1,12,1.224,12,1.5S11.776,2,11.5,2h-7C4.224,2,4,1.776,4,1.5z
		 M3,4h10v18H3V4z M6,24.5C6,24.776,5.776,25,5.5,25h-2C3.224,25,3,24.776,3,24.5S3.224,24,3.5,24h2C5.776,24,6,24.224,6,24.5z
		 M13,24.5c0,0.276-0.224,0.5-0.5,0.5h-2c-0.276,0-0.5-0.224-0.5-0.5s0.224-0.5,0.5-0.5h2C12.776,24,13,24.224,13,24.5z"/>
</g>
<g id="Layer_1">
</g>
</svg>
